# xmcd
#
# Track frame offsets:
# 150
# 13257
# 36200
#
# Disc length: 649 seconds
#
# Revision: 1
# Processed by: cddbd v1.5.1PL0 Copyright (c) Steve Scherf et al.
# Submitted via: Easy CD Ripper v2.35
#
DISCID=1e028703
DTITLE=LeANN Rimes - Crazy
DYEAR=1999
DGENRE=Blues
TTITLE0=Crazy - LeANN Rimes
TTITLE1=How Do I Live - LeANN Rimes
TTITLE2=Blue - LeANN Rimes
EXTD=
EXTT0=
EXTT1=
EXTT2=
PLAYORDER=
